HIERARCHY
ROOT Hips
{
	OFFSET 0.000000 0.000000 0.000000 
	CHANNELS 6 Xposition Yposition Zposition Zrotation Yrotation Xrotation
	JOINT LeftUpLeg
	{
		OFFSET 1.363060 -1.794630 0.839290 
		CHANNELS 3 Zrotation Yrotation Xrotation
		JOINT LeftLeg
		{
			OFFSET 2.448110 -6.726130 0.000000 
			CHANNELS 3 Zrotation Yrotation Xrotation
			JOINT LeftFoot
			{
				OFFSET 2.562200 -7.039590 0.000000 
				CHANNELS 3 Zrotation Yrotation Xrotation
				JOINT LeftToeBase
				{
					OFFSET 0.157640 -0.433110 2.322550 
					CHANNELS 3 Zrotation Yrotation Xrotation
					End Site
					{
						OFFSET 0.000000 0.000000 0.000000 
					}
				}
			}
		}
	}
	JOINT RightUpLeg
	{
		OFFSET -1.305520 -1.794630 0.839290 
		CHANNELS 3 Zrotation Yrotation Xrotation
		JOINT RightLeg
		{
			OFFSET -2.542530 -6.985550 0.000000 
			CHANNELS 3 Zrotation Yrotation Xrotation
			JOINT RightFoot
			{
				OFFSET -2.568260 -7.056230 0.000000 
				CHANNELS 3 Zrotation Yrotation Xrotation
				JOINT RightToeBase
				{
					OFFSET -0.164730 -0.452590 2.363150 
					CHANNELS 3 Zrotation Yrotation Xrotation
					End Site
					{
						OFFSET 0.000000 0.000000 0.000000 
					}
				}
			}
		}
	}
	JOINT Spine
	{
		OFFSET 0.028270 2.035590 -0.193380 
		CHANNELS 3 Zrotation Yrotation Xrotation
		JOINT Spine1
		{
			OFFSET 0.056720 2.048850 -0.042750 
			CHANNELS 3 Zrotation Yrotation Xrotation
			JOINT Neck1
			{
				OFFSET -0.054170 1.746240 0.172020 
				CHANNELS 3 Zrotation Yrotation Xrotation
				JOINT Head
				{
					OFFSET 0.104070 1.761360 -0.123970 
					CHANNELS 3 Zrotation Yrotation Xrotation
					End Site
					{
						OFFSET 0.000000 0.000000 0.000000 
					}
				}
			}
			JOINT LeftArm
			{
				OFFSET 3.362410 1.200890 -0.311210 
				CHANNELS 3 Zrotation Yrotation Xrotation
				JOINT LeftForeArm
				{
					OFFSET 4.983000 -0.000000 -0.000000 
					CHANNELS 3 Zrotation Yrotation Xrotation
					JOINT LeftHand
					{
						OFFSET 3.483560 -0.000000 -0.000000 
						CHANNELS 3 Zrotation Yrotation Xrotation
						JOINT LeftHandIndex1
						{
							OFFSET 0.715260 -0.000000 -0.000000 
							CHANNELS 3 Zrotation Yrotation Xrotation
							End Site
							{
								OFFSET 0.000000 0.000000 0.000000 
							}
						}
					}
				}
			}
			JOINT RightArm
			{
				OFFSET -3.136600 1.374050 -0.404650 
				CHANNELS 3 Zrotation Yrotation Xrotation
				JOINT RightForeArm
				{
					OFFSET -5.241900 -0.000000 -0.000000 
					CHANNELS 3 Zrotation Yrotation Xrotation
					JOINT RightHand
					{
						OFFSET -3.444170 -0.000000 -0.000000 
						CHANNELS 3 Zrotation Yrotation Xrotation
						JOINT RightHandIndex1
						{
							OFFSET -0.622530 -0.000000 -0.000000 
							CHANNELS 3 Zrotation Yrotation Xrotation
							End Site
							{
								OFFSET 0.000000 0.000000 0.000000 
							}
						}
					}
				}
			}
		}
	}
}
MOTION
Frames: 13
Frame Time: 0.041667
-12.957777 17.481970 -11.701646 -1.274582 -9.196017 -0.100947 -7.350580 -6.956052 -25.259153 -0.043208 6.547668 17.627870 -3.166847 15.038406 9.383373 0.362100 -3.865700 -10.699000 21.905131 2.061899 2.168998 -1.699553 -8.480836 28.439477 1.706114 -10.063886 -14.233731 -0.000200 -0.100800 0.276900 0.228139 4.262020 -3.309047 0.574423 2.356891 -2.244273 4.154309 2.099825 18.077750 1.821300 0.615700 13.430900 -58.989695 0.545846 46.860778 28.164124 -42.273359 -13.925897 1.704578 -1.902483 -41.757169 -7.125000 0.000000 0.000000 65.378521 4.562221 37.811582 -21.616049 34.429268 -8.929061 -1.467516 -0.161159 -18.342569 7.125000 0.000000 0.000000 
-12.929924 17.472991 -11.635228 -1.247690 -9.182437 -0.018817 -7.550652 -6.717316 -25.872148 0.079940 6.893652 18.607928 -2.895901 14.228094 9.714225 0.357200 -3.839800 -10.626400 21.840716 2.208054 2.382424 -1.691591 -8.460681 28.377729 1.872958 -10.588212 -14.086431 -0.005000 0.454400 -1.248500 0.253609 4.178084 -3.248379 0.682232 2.316087 -1.993184 4.121858 2.172636 17.950778 1.814200 0.640800 13.403300 -59.029583 -0.063223 46.779739 28.076639 -42.183344 -13.854998 1.807131 -1.939017 -41.689179 -7.125000 0.000000 0.000000 65.430746 4.802905 37.478158 -21.643599 34.444614 -8.936961 -1.435075 -0.195660 -18.492071 7.125000 0.000000 0.000000 
-12.902173 17.464421 -11.566973 -1.108509 -9.103476 -0.016864 -7.903686 -6.486370 -26.393911 0.199436 7.218796 19.559968 -2.636029 13.405454 9.938656 0.319100 -3.631200 -10.041400 21.610578 2.169338 2.626725 -1.684608 -8.437253 28.310531 1.978503 -10.920735 -14.007285 -0.018900 0.887400 -2.439000 0.255169 4.100297 -3.207961 0.762826 2.275616 -1.858504 4.119587 2.121237 17.866786 1.816000 0.613900 13.446000 -59.022701 -0.672956 46.799614 27.849761 -41.976799 -13.676096 1.878043 -1.981848 -41.408631 -7.125000 0.000000 0.000000 65.582734 5.041286 36.971129 -21.515468 34.287394 -8.829578 -1.361024 -0.277903 -18.497997 7.125000 0.000000 0.000000 
-12.878299 17.455341 -11.498004 -1.064399 -9.048809 -0.045677 -8.149004 -6.209538 -26.880672 0.322902 7.539580 20.500001 -2.369838 12.553219 10.188656 0.295500 -3.495700 -9.661900 21.523974 2.207736 2.987942 -1.661190 -8.392182 28.188567 1.992749 -11.022751 -14.200223 -0.014200 0.769500 -2.114700 0.240186 4.064764 -3.156228 0.720472 2.254644 -1.707320 4.089689 2.017035 17.790005 1.757500 0.584800 13.486000 -58.907085 -1.376783 46.892955 27.573143 -41.722577 -13.453584 1.839139 -2.020303 -41.102154 -7.125000 0.000000 0.000000 65.890842 5.191620 36.336452 -21.562265 34.299375 -8.801456 -1.206572 -0.451124 -18.639055 7.125000 0.000000 0.000000 
-12.850242 17.450750 -11.429443 -1.211453 -9.161880 -0.033277 -8.083148 -6.031279 -27.350020 0.446230 7.845845 21.381524 -2.132669 11.770204 10.357452 0.277800 -3.390300 -9.367400 21.642286 2.433616 3.356014 -1.633590 -8.337738 28.033370 2.111653 -11.410529 -14.146166 -0.022700 0.973100 -2.674900 0.254945 4.069341 -3.149674 0.657698 2.258042 -1.767519 4.021783 2.088097 17.657829 1.689100 0.629600 13.372900 -58.848709 -1.668459 46.993682 27.426201 -41.587542 -13.331406 1.781778 -2.038340 -40.858992 -7.125000 0.000000 0.000000 66.100532 4.913350 35.979320 -21.698049 34.476597 -8.980400 -1.422393 -0.225583 -18.877856 7.125000 0.000000 0.000000 
-12.813615 17.448913 -11.358842 -1.299514 -9.321679 0.014471 -8.062245 -5.962341 -27.729732 0.561159 8.122918 22.199985 -1.893474 10.961268 10.526092 0.275300 -3.374900 -9.324400 21.587421 2.522378 3.675234 -1.604807 -8.274314 27.847861 2.205209 -11.655126 -13.912081 -0.049000 1.428600 -3.928800 0.293590 4.047856 -3.211831 0.697094 2.251060 -2.109454 3.987883 2.235846 17.484588 1.689600 0.687100 13.159300 -58.933456 -1.581112 47.156238 27.255640 -41.449486 -13.205781 1.786102 -1.992199 -40.598831 -7.125000 0.000000 0.000000 66.100296 4.258726 35.985722 -21.894367 34.692586 -9.130968 -1.471865 -0.142673 -18.766932 7.125000 0.000000 0.000000 
-12.775560 17.441364 -11.287833 -1.354463 -9.363231 0.055109 -8.181029 -5.802894 -28.089792 0.665554 8.370100 22.940968 -1.624797 10.120258 11.003649 0.315000 -3.608000 -9.976200 21.486543 2.525272 4.003659 -1.567372 -8.199110 27.629283 2.213166 -11.645474 -13.806619 -0.056100 1.528200 -4.203500 0.309228 4.012291 -3.242072 0.666018 2.233604 -2.308240 3.982465 2.258952 17.366848 1.684400 0.700900 13.054100 -58.925743 -1.902900 47.411177 26.956363 -41.184941 -12.979234 1.788058 -1.935289 -40.547528 -7.125000 0.000000 0.000000 66.167220 3.871764 35.863775 -21.935826 34.738891 -9.151720 -1.443565 -0.162777 -18.597633 7.125000 0.000000 0.000000 
-12.734852 17.436773 -11.212844 -1.514440 -9.374861 0.141680 -8.197379 -5.674115 -28.535165 0.765113 8.598651 23.597264 -1.403031 9.500672 11.639102 0.331800 -3.701700 -10.239000 21.493784 2.517931 4.266873 -1.536519 -8.134913 27.451393 2.200285 -11.584609 -13.760932 -0.055600 1.521500 -4.185000 0.326754 3.980048 -3.263238 0.588333 2.219326 -2.424507 3.975513 2.230238 17.305824 1.664200 0.697000 12.976600 -58.893619 -2.248564 47.659917 26.810661 -41.041102 -12.855135 1.779458 -1.922585 -40.563498 -7.125000 0.000000 0.000000 66.229704 3.829531 35.733315 -21.701759 34.512062 -9.005824 -1.438246 -0.188316 -18.691296 7.125000 0.000000 0.000000 
-12.687309 17.436670 -11.124491 -1.505640 -9.484609 0.209177 -8.411198 -5.591315 -28.828537 0.865075 8.815427 24.251227 -1.249306 9.009508 11.924249 0.327500 -3.678000 -10.172400 21.194837 2.375933 4.500961 -1.519424 -8.093650 27.334308 2.144569 -11.364541 -13.678246 -0.070200 1.709300 -4.702900 0.331735 3.998362 -3.270367 0.547325 2.229768 -2.420831 3.965372 2.194274 17.402293 1.664100 0.674700 13.062400 -58.937524 -2.555708 47.854003 26.812443 -41.018630 -12.834208 1.813170 -1.939098 -40.315219 -7.125000 0.000000 0.000000 66.171024 3.726997 35.654038 -21.574556 34.402132 -8.938516 -1.450673 -0.194657 -18.812402 7.125000 0.000000 0.000000 
-12.637929 17.430957 -11.030730 -1.363909 -9.838794 0.261622 -8.782537 -5.327542 -29.007136 0.972111 9.036085 24.940855 -1.124458 8.544906 11.990344 0.335100 -3.720300 -10.291000 20.694733 2.385974 4.763997 -1.501463 -8.063611 27.227458 2.045868 -10.976842 -13.533045 -0.080400 1.828600 -5.032100 0.318130 4.084943 -3.243235 0.505205 2.273222 -2.254552 4.007564 2.249153 17.485615 1.714500 0.692800 13.166000 -58.991825 -2.982330 47.934429 26.734647 -40.932282 -12.762291 1.841186 -1.947744 -40.017550 -7.125000 0.000000 0.000000 66.089274 3.633400 35.671097 -21.579718 34.426547 -8.951687 -1.457595 -0.188685 -18.895755 7.125000 0.000000 0.000000 
-12.591099 17.427386 -10.939724 -1.450607 -10.371113 0.408151 -8.865195 -4.931583 -29.259111 1.090766 9.270316 25.632083 -1.020484 8.215479 12.195611 0.334600 -3.717100 -10.282200 20.490004 2.665889 4.960588 -1.485953 -8.044335 27.146607 2.002222 -10.740073 -13.240965 -0.101900 2.058300 -5.666900 0.326607 4.218023 -3.228813 0.438565 2.343393 -2.148390 4.019894 2.359492 17.392012 1.737000 0.742600 13.085500 -59.014365 -3.226363 48.027218 26.756286 -40.937189 -12.764206 1.841195 -1.942906 -39.746189 -7.125000 0.000000 0.000000 66.028945 3.698788 35.817489 -21.346438 34.197910 -8.800297 -1.440779 -0.195409 -18.928758 7.125000 0.000000 0.000000 
-12.544372 17.427692 -10.852697 -1.618550 -10.789503 0.561314 -8.877842 -4.593245 -29.507507 1.212827 9.499461 26.305636 -0.937894 7.980826 12.439877 0.361200 -3.861000 -10.686000 20.381647 2.830374 5.086680 -1.484207 -8.038978 27.120232 1.987785 -10.592864 -12.896041 -0.144700 2.451400 -6.755000 0.352889 4.313416 -3.249180 0.385019 2.394238 -2.211591 3.892833 2.403365 17.382475 1.636800 0.763000 13.064300 -59.009203 -3.234419 48.228407 26.970922 -41.100667 -12.897492 1.827740 -1.936276 -39.484194 -7.125000 0.000000 0.000000 65.960064 3.571676 35.946925 -21.160362 34.014662 -8.680156 -1.425230 -0.204624 -18.767220 7.125000 0.000000 0.000000 
-12.496726 17.422693 -10.766383 -1.685196 -11.182694 0.562046 -9.031127 -4.195280 -29.648377 1.333402 9.715884 26.962851 -0.874248 7.777290 12.579516 0.399900 -4.060200 -11.246200 20.143488 2.903297 5.357167 -1.488421 -8.037357 27.113566 1.926522 -10.297827 -12.589289 -0.180300 2.735400 -7.542900 0.377210 4.363246 -3.259591 0.380589 2.417661 -2.300729 3.822766 2.468584 17.555692 1.578900 0.791900 13.206000 -59.012004 -3.307109 48.326453 27.124637 -41.208461 -12.991439 1.835333 -1.948241 -39.438663 -7.125000 0.000000 0.000000 65.907965 3.335954 36.041066 -21.164765 34.029374 -8.692152 -1.444147 -0.190361 -18.405680 7.125000 0.000000 0.000000 
